<?xml version="1.0" standalone="no"?>
<!DOCTYPE svg PUBLIC "-//W3C//DTD SVG 20010904//EN"
 "http://www.w3.org/TR/2001/REC-SVG-20010904/DTD/svg10.dtd">
<svg version="1.0" xmlns="http://www.w3.org/2000/svg"
 viewBox="0 0 2600.000000 2600.000000"
 preserveAspectRatio="xMidYMid meet">
<metadata>
Created by potrace 1.15, written by Peter Selinger 2001-2017
</metadata>
<g transform="translate(0.000000,2600.000000) scale(0.100000,-0.100000)"
fill="#000000" stroke="none">
<path d="M12990 22975 c-8 -2 -49 -9 -90 -15 -180 -29 -358 -108 -446 -197
-129 -131 -274 -523 -374 -1007 -16 -80 -27 -105 -69 -168 -65 -97 -86 -161
-86 -268 0 -112 30 -204 102 -313 l55 -82 -5 -170 c-6 -162 -22 -287 -50 -385
l-13 -45 -274 -5 -275 -5 -80 28 c-113 40 -356 102 -518 132 -278 51 -520 84
-1107 150 -173 20 -367 45 -430 56 -203 34 -486 116 -697 202 -79 32 -86 37
-161 127 -204 246 -472 407 -827 498 -253 65 -1022 208 -2160 401 l-470 80
-194 71 -194 70 -126 123 c-309 301 -403 366 -622 432 -187 57 -488 82 -609
51 -151 -38 -291 -129 -331 -214 -19 -38 -31 -51 -52 -56 -75 -16 -122 -81
-115 -158 6 -57 61 -145 158 -251 80 -87 151 -132 295 -187 143 -55 171 -72
296 -182 117 -104 168 -139 262 -183 149 -70 335 -108 592 -120 128 -6 147
-10 230 -42 180 -71 364 -173 627 -346 543 -359 1034 -652 1182 -706 144 -52
451 -107 1091 -196 355 -50 506 -78 639 -120 l84 -27 7 -107 c13 -217 63 -611
96 -760 15 -70 37 -89 143 -125 187 -63 647 -305 1117 -586 200 -120 523 -322
537 -335 2 -2 26 -120 53 -262 l50 -258 -1 -410 c0 -225 -5 -676 -11 -1001 -5
-325 -11 -737 -12 -915 -1 -316 0 -331 35 -614 l36 -290 -80 -255 -80 -255 37
-155 c21 -85 55 -210 76 -276 l39 -122 -572 -1023 c-314 -563 -590 -1064 -613
-1114 -156 -332 -206 -728 -125 -988 17 -53 18 -68 8 -102 -7 -23 -12 -94 -11
-165 2 -217 56 -381 338 -1015 456 -1025 1101 -2328 1257 -2538 25 -34 155
-190 289 -347 284 -332 401 -477 446 -552 39 -63 68 -171 87 -320 15 -108 14
-108 -11 -170 -34 -85 -109 -232 -150 -297 -47 -73 -128 -156 -248 -256 -215
-177 -270 -274 -230 -410 82 -285 585 -287 1260 -5 290 121 447 170 610 190
130 16 276 47 332 71 114 48 163 144 164 314 0 162 -47 267 -167 371 -225 193
-420 446 -501 649 -59 146 -206 480 -279 633 -57 120 -69 158 -120 370 -117
491 -259 956 -389 1277 -149 367 -328 678 -499 862 -47 51 -74 97 -162 278
-87 180 -103 219 -94 236 11 19 12 19 53 -7 106 -66 211 -101 267 -90 81 15
204 144 676 708 351 419 609 720 705 821 l74 79 152 -179 c705 -831 1004
-1093 1290 -1129 55 -6 61 -10 113 -68 95 -106 261 -277 370 -379 302 -286
502 -374 925 -407 72 -5 474 -13 895 -16 629 -6 856 -4 1277 11 331 11 618 16
810 12 431 -7 558 -31 821 -149 257 -116 396 -168 967 -363 640 -219 705 -246
919 -382 330 -211 447 -249 574 -184 120 61 234 311 235 516 0 138 -36 240
-116 324 -23 24 -226 182 -452 351 -225 169 -450 342 -500 385 -129 112 -192
150 -497 299 -280 137 -328 167 -515 319 -151 124 -329 240 -426 278 -67 27
-97 33 -162 33 -107 1 -140 -19 -292 -179 -66 -69 -124 -125 -130 -125 -13 0
-544 199 -743 279 -688 277 -1203 426 -1510 438 l-135 5 -143 -46 c-140 -45
-288 -76 -367 -76 -38 0 -47 6 -154 114 -80 80 -111 118 -105 127 4 8 26 36
47 64 37 47 39 53 34 105 -20 221 -450 1105 -1156 2375 l-155 280 2 85 c2 50
-3 116 -13 160 -12 57 -15 128 -14 295 1 255 6 235 -118 477 l-75 147 16 128
c8 70 21 165 28 210 14 99 4 180 -42 313 l-29 85 30 90 c42 126 103 261 208
465 89 173 226 475 291 640 18 47 36 89 40 93 4 5 288 -99 631 -230 l624 -238
125 2 c91 1 147 7 204 22 44 12 85 21 92 21 7 0 67 -36 133 -80 386 -258 1021
-558 2116 -1000 575 -232 740 -308 1015 -468 192 -112 199 -117 322 -294 124
-176 217 -277 339 -368 203 -150 431 -206 614 -149 74 23 135 75 191 165 20
32 41 52 60 58 64 19 88 31 116 54 55 47 201 224 214 261 20 56 16 132 -11
220 -25 78 -30 84 -128 184 -117 117 -239 213 -337 262 -130 66 -368 118 -712
156 l-193 22 -165 85 -165 86 -830 761 c-456 419 -875 803 -930 854 -55 51
-127 113 -161 137 -122 88 -288 157 -465 194 -50 10 -96 26 -102 34 -13 16
-306 186 -542 313 -181 98 -235 137 -381 274 -212 200 -421 424 -881 940 -291
328 -366 401 -486 482 -108 72 -235 111 -327 100 -28 -3 -45 3 -85 33 -211
154 -442 292 -685 411 -85 41 -156 76 -158 78 -1 1 40 65 92 143 198 297 306
587 306 823 0 75 4 98 24 137 84 167 134 520 123 876 -6 198 -21 278 -78 427
-62 160 -220 352 -378 458 -224 152 -517 232 -834 230 -89 -1 -169 -3 -177 -4z"/>
<path d="M15972 7429 c-405 -34 -778 -203 -1069 -483 -330 -317 -506 -684
-545 -1138 -45 -515 162 -1054 541 -1410 344 -324 766 -488 1254 -488 328 0
723 136 1009 348 321 238 562 600 662 997 81 321 56 727 -63 1040 -239 628
-836 1082 -1482 1129 -172 13 -206 14 -307 5z m136 -224 c34 -15 62 -30 62
-32 0 -2 -18 -27 -39 -56 -50 -67 -103 -165 -131 -244 l-22 -62 -322 -107
-322 -108 -127 68 -127 67 24 47 c113 223 396 386 775 447 110 18 153 14 229
-20z m686 -159 c106 -18 163 -44 277 -130 89 -67 242 -222 293 -295 28 -41 28
-41 8 -58 -11 -10 -64 -99 -117 -198 -54 -99 -99 -182 -100 -183 -2 -2 -48 4
-102 13 -75 13 -145 16 -296 14 l-198 -3 -118 168 c-65 92 -155 214 -201 269
l-83 101 18 53 c24 71 85 178 131 232 l38 44 181 -6 c99 -4 220 -13 269 -21z
m-1686 -546 l122 -65 0 -346 0 -347 -97 -99 c-54 -54 -134 -149 -177 -210
l-80 -112 -40 22 c-22 12 -75 56 -117 97 l-77 75 -13 80 c-21 118 -18 424 5
550 24 133 46 181 114 247 57 56 222 180 233 175 3 -1 61 -31 127 -67z m1967
-502 l50 -14 76 -189 c42 -105 98 -254 124 -333 l48 -142 -27 -69 c-45 -115
-137 -244 -272 -380 l-122 -124 -149 7 c-81 4 -213 15 -292 24 l-145 17 -27
135 c-16 74 -49 221 -75 325 l-46 190 117 194 c64 107 142 234 173 282 54 84
59 88 97 92 85 10 420 -2 470 -15z m-1387 -524 c191 -53 348 -97 349 -97 1 -1
19 -76 42 -167 59 -240 103 -462 97 -486 -3 -12 -77 -95 -164 -185 l-158 -163
-85 18 c-181 38 -407 130 -484 197 -16 14 -39 31 -51 37 -44 23 -124 217 -184
447 l-28 110 20 35 c61 105 266 350 293 350 3 0 162 -43 353 -96z m1942 -208
c0 -2 -12 -39 -26 -82 -61 -189 -190 -411 -324 -557 -106 -117 -230 -225 -230
-200 0 4 6 45 14 91 l13 83 111 110 c169 167 277 320 337 476 16 40 36 74 44
76 21 6 61 8 61 3z m-2276 -937 c101 -46 234 -90 362 -119 79 -18 106 -29 131
-53 18 -17 31 -32 29 -34 -7 -8 -165 30 -262 62 -122 40 -259 108 -371 183
-93 61 -115 92 -26 35 31 -20 93 -53 137 -74z"/>
</g>
</svg>
